<svg width="77" height="51" viewBox="0 0 77 51" fill="none" xmlns="http://www.w3.org/2000/svg">
<rect x="0.640137" y="24.5029" width="8" height="25" transform="rotate(-90 0.640137 24.5029)" fill="#FFD700"/>
<rect x="0.640137" y="34.5029" width="8" height="25" transform="rotate(-90 0.640137 34.5029)" fill="#FFD700"/>
<path d="M27.7848 0.502899L48.4955 0.502899L63.1401 15.1476V35.8582L48.4955 50.5029H27.7848L13.1401 35.8582L13.1401 15.1476L27.7848 0.502899Z" fill="#14682E"/>
<path fill-rule="evenodd" clip-rule="evenodd" d="M51.5544 8.55411L50.1401 9.96832L56.6255 16.4537V25.6235H58.6255V15.6235H58.6237L51.5544 8.55411Z" fill="#2CDF83"/>
<rect x="72.4722" y="28.8312" width="1" height="9" fill="#D4AF37" stroke="#D4AF37"/>
<rect x="70.4366" y="26.9171" width="1" height="3" transform="rotate(-45 70.4366 26.9171)" fill="#D4AF37" stroke="#D4AF37"/>
<rect x="63.6401" y="27.0029" width="1" height="7" transform="rotate(-90 63.6401 27.0029)" fill="#D4AF37" stroke="#D4AF37"/>
<circle cx="72.9722" cy="40.3312" r="3" stroke="#D4AF37" stroke-width="2"/>
</svg>
