<svg width="76" height="76" viewBox="0 0 76 76" fill="none" xmlns="http://www.w3.org/2000/svg">
<rect x="56.6407" y="0.502899" width="8" height="25" fill="#D4AF37"/>
<rect x="44.17" y="0.502899" width="8" height="25" fill="#FFD700"/>
<rect x="32.17" y="0.502899" width="8" height="25" fill="#D4AF37"/>
<rect x="20.17" y="0.502899" width="8" height="25" fill="#FFD700"/>
<rect x="44.6407" y="50.5029" width="8" height="25" fill="#FFD700"/>
<rect x="32.17" y="50.5029" width="8" height="25" fill="#FFD700"/>
<rect x="20.17" y="50.5029" width="8" height="25" fill="#D4AF37"/>
<rect x="8.17004" y="50.5029" width="8" height="25" fill="#D4AF37"/>
<path d="M0.905396 33.0029C0.905396 21.9572 9.8597 13.0029 20.9054 13.0029H75.9054V43.0029C75.9054 54.0486 66.9511 63.0029 55.9054 63.0029H0.905396V33.0029Z" fill="#14682E"/>
<circle cx="24.17" cy="33.0029" r="4" fill="#2CDF83"/>
<circle cx="24.17" cy="43.0029" r="4" fill="#2CDF83"/>
<circle cx="34.17" cy="33.0029" r="4" fill="#2CDF83"/>
<circle cx="34.17" cy="43.0029" r="4" fill="#2CDF83"/>
</svg>
