<svg width="56" height="62" viewBox="0 0 56 62" fill="none" xmlns="http://www.w3.org/2000/svg">
<rect width="1.98421" height="10.0176" transform="matrix(0 -1 -1 0 16.2487 5.59366)" fill="#FFD700"/>
<rect width="1.99389" height="9.96947" transform="matrix(0.710524 -0.703673 -0.710524 -0.703673 21.9154 12.0278)" fill="#FFD700"/>
<path d="M4.22744 1.63313C2.55753 1.63313 1.22038 2.97125 1.22038 4.60155C1.22038 6.23186 2.55753 7.56998 4.22744 7.56998C5.89735 7.56998 7.2345 6.23186 7.2345 4.60155C7.2345 2.97125 5.89735 1.63313 4.22744 1.63313Z" stroke="#FFD700" stroke-width="2"/>
<rect x="22.3306" y="37.8226" width="2.00353" height="17.8579" fill="#FFD700"/>
<path d="M26.3394 57.6647C26.3394 59.295 25.0023 60.6331 23.3324 60.6331C21.6625 60.6331 20.3253 59.295 20.3253 57.6647C20.3253 56.0344 21.6625 54.6963 23.3324 54.6963C25.0023 54.6963 26.3394 56.0344 26.3394 57.6647Z" stroke="#FFD700" stroke-width="2"/>
<rect x="50.2118" y="31.6996" width="2.00353" height="9.92106" fill="#D4AF37"/>
<rect width="1.99389" height="3.98779" transform="matrix(0.710524 -0.703673 0.710524 0.703673 47.9652 30.2967)" fill="#D4AF37"/>
<rect x="41.3641" y="30.8779" width="1.98421" height="8.01412" transform="rotate(-90 41.3641 30.8779)" fill="#D4AF37"/>
<path d="M54.2205 43.6049C54.2205 45.2352 52.8834 46.5733 51.2135 46.5733C49.5436 46.5733 48.2064 45.2352 48.2064 43.6049C48.2064 41.9746 49.5436 40.6365 51.2135 40.6365C52.8834 40.6365 54.2205 41.9746 54.2205 43.6049Z" stroke="#D4AF37" stroke-width="2"/>
<ellipse cx="23.3323" cy="29.8857" rx="20.0353" ry="19.8421" fill="#14682E"/>
<ellipse cx="23.3323" cy="29.8857" rx="15.0265" ry="14.8816" fill="#2CDF83"/>
</svg>
