<svg width="57" height="58" viewBox="0 0 57 58" fill="none" xmlns="http://www.w3.org/2000/svg">
<rect x="12.8721" y="41.8611" width="40" height="4" transform="rotate(-45 12.8721 41.8611)" fill="#2CDF83"/>
<rect x="41.1564" y="44.6895" width="40" height="4" transform="rotate(-135 41.1564 44.6895)" fill="#2CDF83"/>
<rect x="14.2863" y="29.1331" width="20" height="20" transform="rotate(-45 14.2863 29.1331)" fill="#2CDF83"/>
<circle cx="21.3574" cy="29.1331" r="4" transform="rotate(-45 21.3574 29.1331)" fill="#FFD700"/>
<circle cx="28.4285" cy="36.2042" r="4" transform="rotate(-45 28.4285 36.2042)" fill="#FFD700"/>
<circle cx="28.4285" cy="22.062" r="4" transform="rotate(-45 28.4285 22.062)" fill="#FFD700"/>
<circle cx="35.4995" cy="29.1331" r="4" transform="rotate(-45 35.4995 29.1331)" fill="#FFD700"/>
<path fill-rule="evenodd" clip-rule="evenodd" d="M28.4284 0.848847L0.144165 29.1331L28.4284 57.4174L56.7127 29.1331L28.4284 0.848847ZM28.4284 7.91991L7.21523 29.1331L28.4284 50.3463L49.6416 29.1331L28.4284 7.91991Z" fill="#14682E"/>
</svg>
