<svg width="76" height="79" viewBox="0 0 76 79" fill="none" xmlns="http://www.w3.org/2000/svg">
<rect x="38.6287" y="15.5029" width="1" height="9" transform="rotate(-180 38.6287 15.5029)" fill="#C4C4C4" stroke="#FFD700"/>
<circle cx="38.1287" cy="4.0029" r="3" transform="rotate(-180 38.1287 4.0029)" stroke="#FFD700" stroke-width="2"/>
<rect x="8.88171" y="54.7633" width="1" height="17" fill="#C4C4C4" stroke="#FFD700"/>
<circle cx="9.38171" cy="74.2633" r="3" stroke="#FFD700" stroke-width="2"/>
<path d="M0.628662 33.0029C0.628662 21.9572 9.58297 13.0029 20.6287 13.0029H75.6287V43.0029C75.6287 54.0486 66.6744 63.0029 55.6287 63.0029H0.628662V33.0029Z" fill="#14682E"/>
<circle cx="52.2371" cy="38.0029" r="4" transform="rotate(-45 52.2371 38.0029)" fill="#2CDF83"/>
<circle cx="59.3081" cy="45.074" r="4" transform="rotate(-45 59.3081 45.074)" fill="#2CDF83"/>
<circle cx="59.3081" cy="30.9318" r="4" transform="rotate(-45 59.3081 30.9318)" fill="#2CDF83"/>
<circle cx="66.3792" cy="38.0029" r="4" transform="rotate(-45 66.3792 38.0029)" fill="#2CDF83"/>
</svg>
