<svg width="71" height="73" viewBox="0 0 71 73" fill="none" xmlns="http://www.w3.org/2000/svg">
<rect x="0.219482" y="14.1482" width="8" height="25" transform="rotate(-45 0.219482 14.1482)" fill="#FFD700"/>
<rect x="8.70483" y="5.6629" width="8" height="25" transform="rotate(-45 8.70483 5.6629)" fill="#FFD700"/>
<circle cx="32.0393" cy="31.8259" r="25" fill="#EC9F58"/>
<rect x="31.5393" y="57.3259" width="1" height="9" fill="#C4C4C4" stroke="#FFD700"/>
<circle cx="32.0393" cy="68.8259" r="3" stroke="#FFD700" stroke-width="2"/>
<rect x="0.5" y="-0.5" width="1" height="9" transform="matrix(1 0 0 -1 65.8713 27.9975)" fill="#C4C4C4" stroke="#FFD700"/>
<rect width="2" height="4" transform="matrix(0.707107 0.707107 0.707107 -0.707107 63.6287 30.4117)" fill="#FFD700"/>
<rect x="0.5" y="0.5" width="1" height="7" transform="matrix(0 1 1 0 57.0393 29.8258)" fill="#C4C4C4" stroke="#FFD700"/>
<circle r="3" transform="matrix(1 0 0 -1 66.8713 16.9975)" stroke="#FFD700" stroke-width="2"/>
</svg>
