<svg width="60" height="63" viewBox="0 0 60 63" fill="none" xmlns="http://www.w3.org/2000/svg">
<rect x="24.7264" y="47.3476" width="1" height="9" fill="#C4C4C4" stroke="#FFD700"/>
<circle cx="25.2264" cy="58.8476" r="3" stroke="#FFD700" stroke-width="2"/>
<rect x="0.5" y="-0.5" width="1" height="9" transform="matrix(1 1.74846e-07 1.74846e-07 -1 54.4147 21.2047)" fill="#C4C4C4" stroke="#FFD700"/>
<rect x="0.707107" y="1.19209e-07" width="1" height="3" transform="matrix(0.707107 0.707107 0.707107 -0.707107 52.3791 23.1188)" fill="#C4C4C4" stroke="#FFD700"/>
<rect x="0.5" y="0.5" width="1" height="7" transform="matrix(-1.74846e-07 1 1 1.74846e-07 45.5826 23.033)" fill="#C4C4C4" stroke="#FFD700"/>
<circle r="3" transform="matrix(1 1.74846e-07 1.74846e-07 -1 55.4147 10.2047)" stroke="#FFD700" stroke-width="2"/>
<rect x="24.7264" y="4.70471" width="1" height="9" fill="#C4C4C4" stroke="#D4AF37"/>
<circle cx="25.2264" cy="16.2047" r="3" stroke="#D4AF37" stroke-width="2"/>
<path d="M50.2264 25.0331C50.2264 38.8402 39.0336 50.0331 25.2264 50.0331C11.4193 50.0331 0.22644 38.8402 0.22644 25.0331C0.22644 11.2259 11.4193 0.0330505 25.2264 0.0330505C39.0336 0.0330505 50.2264 11.2259 50.2264 25.0331ZM7.72644 25.0331C7.72644 34.698 15.5615 42.5331 25.2264 42.5331C34.8914 42.5331 42.7264 34.698 42.7264 25.0331C42.7264 15.3681 34.8914 7.53305 25.2264 7.53305C15.5615 7.53305 7.72644 15.3681 7.72644 25.0331Z" fill="#EC9F58"/>
</svg>
