<svg width="76" height="76" viewBox="0 0 76 76" fill="none" xmlns="http://www.w3.org/2000/svg">
<rect x="56.1887" y="0.00604248" width="8" height="25" fill="#D4AF37"/>
<rect x="43.718" y="0.00604248" width="8" height="25" fill="#FFD700"/>
<rect x="31.718" y="0.00604248" width="8" height="25" fill="#D4AF37"/>
<rect x="19.718" y="0.00604248" width="8" height="25" fill="#FFD700"/>
<rect x="44.1887" y="50.006" width="8" height="25" fill="#FFD700"/>
<rect x="31.718" y="50.006" width="8" height="25" fill="#FFD700"/>
<rect x="19.718" y="50.006" width="8" height="25" fill="#D4AF37"/>
<rect x="7.71802" y="50.006" width="8" height="25" fill="#D4AF37"/>
<path d="M0.453369 32.506C0.453369 21.4603 9.40768 12.506 20.4534 12.506H75.4534V42.506C75.4534 53.5517 66.4991 62.506 55.4534 62.506H0.453369V32.506Z" fill="#E96F6F"/>
<circle cx="23.718" cy="32.506" r="4" fill="#D0D0D0"/>
<circle cx="23.718" cy="42.506" r="4" fill="#D0D0D0"/>
<circle cx="33.718" cy="32.506" r="4" fill="#D0D0D0"/>
<circle cx="33.718" cy="42.506" r="4" fill="#D0D0D0"/>
</svg>
