<svg width="56" height="62" viewBox="0 0 56 62" fill="none" xmlns="http://www.w3.org/2000/svg">
<rect width="1.98421" height="10.0176" transform="matrix(0 -1 -1 0 16.1722 5.59369)" fill="#FFD700"/>
<rect width="1.99389" height="9.96947" transform="matrix(0.710524 -0.703673 -0.710524 -0.703673 21.839 12.0278)" fill="#FFD700"/>
<path d="M4.15102 1.63316C2.48111 1.63316 1.14396 2.97128 1.14396 4.60158C1.14396 6.23189 2.48111 7.57001 4.15102 7.57001C5.82093 7.57001 7.15808 6.23189 7.15808 4.60158C7.15808 2.97128 5.82093 1.63316 4.15102 1.63316Z" stroke="#FFD700" stroke-width="2"/>
<rect x="22.2542" y="37.8226" width="2.00353" height="17.8579" fill="#FFD700"/>
<path d="M26.263 57.6647C26.263 59.295 24.9259 60.6331 23.256 60.6331C21.5861 60.6331 20.2489 59.295 20.2489 57.6647C20.2489 56.0344 21.5861 54.6963 23.256 54.6963C24.9259 54.6963 26.263 56.0344 26.263 57.6647Z" stroke="#FFD700" stroke-width="2"/>
<rect x="50.1354" y="31.6996" width="2.00353" height="9.92106" fill="#D4AF37"/>
<rect width="1.99389" height="3.98779" transform="matrix(0.710524 -0.703673 0.710524 0.703673 47.8888 30.2967)" fill="#D4AF37"/>
<rect x="41.2877" y="30.8779" width="1.98421" height="8.01412" transform="rotate(-90 41.2877 30.8779)" fill="#D4AF37"/>
<path d="M54.1441 43.6049C54.1441 45.2352 52.807 46.5734 51.1371 46.5734C49.4672 46.5734 48.13 45.2352 48.13 43.6049C48.13 41.9746 49.4672 40.6365 51.1371 40.6365C52.807 40.6365 54.1441 41.9746 54.1441 43.6049Z" stroke="#D4AF37" stroke-width="2"/>
<ellipse cx="23.2559" cy="29.8858" rx="20.0353" ry="19.8421" fill="#6CD1F1"/>
<ellipse cx="23.2558" cy="29.8858" rx="15.0265" ry="14.8816" fill="#F598F6"/>
</svg>
