<svg width="57" height="60" viewBox="0 0 57 60" fill="none" xmlns="http://www.w3.org/2000/svg">
<rect x="33.0762" y="27.3477" width="1" height="17" transform="rotate(-90 33.0762 27.3477)" fill="#C4C4C4" stroke="#D4AF37"/>
<circle cx="52.5762" cy="26.8477" r="3" transform="rotate(-90 52.5762 26.8477)" stroke="#D4AF37" stroke-width="2"/>
<rect x="36.0762" y="43.9186" width="1" height="9" fill="#C4C4C4" stroke="#D4AF37"/>
<rect x="29.7979" y="37.7617" width="1" height="9" transform="rotate(-45 29.7979 37.7617)" fill="#C4C4C4" stroke="#D4AF37"/>
<circle cx="36.5762" cy="55.4186" r="3" stroke="#D4AF37" stroke-width="2"/>
<path d="M25.8335 0.847626L34.5835 10.6922L47.4841 13.3476L43.3335 25.8476L47.4841 38.3476L34.5835 41.0031L25.8335 50.8476L17.0835 41.0031L4.18286 38.3476L8.3335 25.8476L4.18286 13.3476L17.0835 10.6922L25.8335 0.847626Z" fill="#E96F6F"/>
<circle cx="20.8335" cy="20.8476" r="4" fill="#FFD700"/>
<circle cx="20.8335" cy="30.8476" r="4" fill="#FFD700"/>
<circle cx="30.8335" cy="20.8476" r="4" fill="#FFD700"/>
<circle cx="30.8335" cy="30.8476" r="4" fill="#FFD700"/>
</svg>
